<?xml version="1.0" encoding="utf-8"?><!-- Uploaded to: SVG Repo, www.svgrepo.com, Generator: SVG Repo Mixer Tools -->
<svg width="800px" height="800px" viewBox="0 0 24 24" fill="none" xmlns="http://www.w3.org/2000/svg">
<path d="M17.8779 20.0899C16.1694 21.3312 14.1118 21.9998 12 21.9998C9.88824 21.9998 7.83066 21.3312 6.12218 20.0899M16.3837 3.01182C18.2818 3.93756 19.8381 5.44044 20.8295 7.30504C21.8209 9.16964 22.1966 11.3002 21.9027 13.3915M2.09745 13.3914C1.80355 11.3002 2.17923 9.16955 3.17066 7.30494C4.16208 5.44034 5.71836 3.93747 7.61642 3.01172M17.5 11.9998C17.5 15.0373 15.0376 17.4998 12 17.4998C8.96247 17.4998 6.50004 15.0373 6.50004 11.9998C6.50004 8.96219 8.96247 6.49976 12 6.49976C15.0376 6.49976 17.5 8.96219 17.5 11.9998Z" stroke="#000000" stroke-width="2" stroke-linecap="round" stroke-linejoin="round"/>
</svg>