<?xml version="1.0" encoding="utf-8"?><!-- Uploaded to: SVG Repo, www.svgrepo.com, Generator: SVG Repo Mixer Tools -->
<svg width="800px" height="800px" viewBox="0 0 24 24" fill="none" xmlns="http://www.w3.org/2000/svg">
<path d="M17.8779 20.0899C16.1694 21.3312 14.1118 21.9998 12 21.9998C9.88824 21.9998 7.83066 21.3312 6.12218 20.0899M16.3837 3.01182C18.2818 3.93756 19.8381 5.44044 20.8295 7.30504C21.8209 9.16964 22.1966 11.3002 21.9027 13.3915M2.09745 13.3914C1.80355 11.3002 2.17923 9.16955 3.17066 7.30494C4.16208 5.44034 5.71836 3.93747 7.61642 3.01172M11.4344 6.56544L6.56572 11.4341C6.36771 11.6321 6.26871 11.7311 6.23161 11.8452C6.19899 11.9457 6.19899 12.0538 6.23161 12.1543C6.26871 12.2684 6.36771 12.3674 6.56572 12.5654L11.4344 17.4341C11.6324 17.6321 11.7314 17.7311 11.8455 17.7682C11.9459 17.8008 12.0541 17.8008 12.1545 17.7682C12.2687 17.7311 12.3677 17.6321 12.5657 17.4341L17.4344 12.5654C17.6324 12.3674 17.7314 12.2684 17.7685 12.1543C17.8011 12.0538 17.8011 11.9457 17.7685 11.8452C17.7314 11.7311 17.6324 11.6321 17.4344 11.4341L12.5657 6.56544C12.3677 6.36743 12.2687 6.26843 12.1545 6.23134C12.0541 6.19871 11.9459 6.19871 11.8455 6.23134C11.7314 6.26843 11.6324 6.36743 11.4344 6.56544Z" stroke="#000000" stroke-width="2" stroke-linecap="round" stroke-linejoin="round"/>
</svg>