<?xml version="1.0" encoding="utf-8"?><!-- Uploaded to: SVG Repo, www.svgrepo.com, Generator: SVG Repo Mixer Tools -->
<svg width="800px" height="800px" viewBox="0 0 24 24" fill="none" xmlns="http://www.w3.org/2000/svg">
<path d="M21 18.0002L19.9999 19.0943C19.4695 19.6744 18.7501 20.0002 18.0001 20.0002C17.2501 20.0002 16.5308 19.6744 16.0004 19.0943C15.4692 18.5154 14.75 18.1903 14.0002 18.1903C13.2504 18.1903 12.5311 18.5154 12 19.0943M3 20.0002H4.67454C5.16372 20.0002 5.40832 20.0002 5.63849 19.945C5.84256 19.896 6.03765 19.8152 6.2166 19.7055C6.41843 19.5818 6.59138 19.4089 6.93729 19.063L19.5 6.50023C20.3285 5.6718 20.3285 4.32865 19.5 3.50023C18.6716 2.6718 17.3285 2.6718 16.5 3.50023L3.93726 16.063C3.59136 16.4089 3.4184 16.5818 3.29472 16.7837C3.18506 16.9626 3.10425 17.1577 3.05526 17.3618C3 17.5919 3 17.8365 3 18.3257V20.0002Z" stroke="#000000" stroke-width="2" stroke-linecap="round" stroke-linejoin="round"/>
</svg>