<?xml version="1.0" encoding="utf-8"?><!-- Uploaded to: SVG Repo, www.svgrepo.com, Generator: SVG Repo Mixer Tools -->
<svg width="800px" height="800px" viewBox="0 0 24 24" fill="none" xmlns="http://www.w3.org/2000/svg">
<path d="M21.9997 16.4368C21.9997 17.5668 21.9997 18.1318 21.7714 18.4088C21.5731 18.6495 21.2739 18.7838 20.9623 18.7722C20.6036 18.7588 20.1813 18.3834 19.3367 17.6326L14.345 13.1956C13.8797 12.782 13.6471 12.5752 13.5614 12.331C13.4861 12.1166 13.4861 11.8829 13.5614 11.6684C13.6471 11.4242 13.8797 11.2175 14.345 10.8039L19.3367 6.36682C20.1813 5.61606 20.6036 5.24069 20.9623 5.22726C21.2739 5.2156 21.5731 5.34997 21.7714 5.59062C21.9997 5.86763 21.9997 6.43264 21.9997 7.56267V16.4368Z" stroke="#000000" stroke-width="2" stroke-linecap="round" stroke-linejoin="round"/>
<path d="M10.9997 16.4368C10.9997 17.5668 10.9997 18.1318 10.7714 18.4088C10.5731 18.6495 10.2739 18.7838 9.96228 18.7722C9.60359 18.7588 9.1813 18.3834 8.3367 17.6326L3.34502 13.1956C2.87973 12.782 2.64709 12.5752 2.56135 12.331C2.48606 12.1166 2.48606 11.8829 2.56135 11.6684C2.64709 11.4242 2.87973 11.2175 3.34502 10.8039L8.3367 6.36682C9.1813 5.61606 9.60359 5.24069 9.96228 5.22726C10.2739 5.2156 10.5731 5.34997 10.7714 5.59062C10.9997 5.86763 10.9997 6.43264 10.9997 7.56267V16.4368Z" stroke="#000000" stroke-width="2" stroke-linecap="round" stroke-linejoin="round"/>
</svg>