<?xml version="1.0" encoding="utf-8"?><!-- Uploaded to: SVG Repo, www.svgrepo.com, Generator: SVG Repo Mixer Tools -->
<svg width="800px" height="800px" viewBox="0 0 24 24" fill="none" xmlns="http://www.w3.org/2000/svg">
<path d="M16.2429 4.75708C18.586 7.10023 18.586 10.8992 16.2429 13.2424M7.75758 13.2424C5.41444 10.8992 5.41443 7.10023 7.75758 4.75708M4.85853 15.9998C1.02383 12.0891 1.0473 5.81035 4.92893 1.92871M19.0715 1.92871C22.9531 5.81035 22.9766 12.0891 19.1419 15.9998M12.0002 15.9998V8.99976M5.00022 21.9998H19.0002C19.9321 21.9998 20.398 21.9998 20.7656 21.8475C21.2556 21.6445 21.645 21.2552 21.848 20.7651C22.0002 20.3976 22.0002 19.9316 22.0002 18.9998C22.0002 18.0679 22.0002 17.6019 21.848 17.2344C21.645 16.7443 21.2556 16.355 20.7656 16.152C20.398 15.9998 19.9321 15.9998 19.0002 15.9998H5.00022C4.06834 15.9998 3.6024 15.9998 3.23485 16.152C2.7448 16.355 2.35545 16.7443 2.15246 17.2344C2.00022 17.6019 2.00022 18.0679 2.00022 18.9998C2.00022 19.9316 2.00022 20.3976 2.15246 20.7651C2.35545 21.2552 2.7448 21.6445 3.23485 21.8475C3.6024 21.9998 4.06834 21.9998 5.00022 21.9998Z" stroke="#000000" stroke-width="2" stroke-linecap="round" stroke-linejoin="round"/>
</svg>