<?xml version="1.0" encoding="utf-8"?><!-- Uploaded to: SVG Repo, www.svgrepo.com, Generator: SVG Repo Mixer Tools -->
<svg width="800px" height="800px" viewBox="0 0 24 24" fill="none" xmlns="http://www.w3.org/2000/svg">
<path d="M16.2429 5.75708C18.586 8.10023 18.586 11.8992 16.2429 14.2424M7.75758 14.2424C5.41443 11.8992 5.41443 8.10023 7.75758 5.75708M4.92893 17.0708C1.02369 13.1656 1.02369 6.83395 4.92893 2.92871M19.0715 2.92871C22.9768 6.83395 22.9768 13.1656 19.0715 17.0708M12.0002 11.9998C13.1048 11.9998 14.0002 11.1043 14.0002 9.99976C14.0002 8.89519 13.1048 7.99976 12.0002 7.99976C10.8957 7.99976 10.0002 8.89519 10.0002 9.99976C10.0002 11.1043 10.8957 11.9998 12.0002 11.9998ZM12.0002 11.9998V20.9998" stroke="#000000" stroke-width="2" stroke-linecap="round" stroke-linejoin="round"/>
</svg>