<?xml version="1.0" encoding="utf-8"?><!-- Uploaded to: SVG Repo, www.svgrepo.com, Generator: SVG Repo Mixer Tools -->
<svg width="800px" height="800px" viewBox="0 0 24 24" fill="none" xmlns="http://www.w3.org/2000/svg">
<path d="M19 10L4.99997 10M19 10L20.8641 13.1069C21.2819 13.8032 21.4908 14.1514 21.5993 14.5262C21.6954 14.8582 21.7334 15.2045 21.7116 15.5495C21.687 15.9389 21.5586 16.324 21.3018 17.0944L21.094 17.7179C20.7006 18.8981 20.5039 19.4882 20.139 19.9245C19.8168 20.3098 19.4031 20.608 18.9357 20.7918C18.4064 21 17.7844 21 16.5403 21L7.45961 21C6.21554 21 5.5935 21 5.06423 20.7918C4.59684 20.608 4.18309 20.3098 3.8609 19.9245C3.49605 19.4882 3.29934 18.8981 2.90593 17.7179L2.6981 17.0944C2.44131 16.324 2.31292 15.9389 2.28832 15.5495C2.26652 15.2044 2.30452 14.8582 2.40065 14.5261C2.50914 14.1514 2.71803 13.8032 3.13581 13.1069L4.99997 10M19 10L19.4172 8.53955C19.6151 7.84717 19.714 7.50097 19.6363 7.22708C19.5682 6.98715 19.4129 6.78132 19.2009 6.64996C18.9589 6.5 18.5989 6.5 17.8788 6.5L6.12113 6.5C5.40104 6.5 5.04099 6.5 4.79898 6.64996C4.58699 6.78132 4.43173 6.98715 4.36366 7.22708C4.28596 7.50097 4.38487 7.84717 4.5827 8.53955L4.99997 10M12 6.5H8.46425C7.94329 6.5 7.44367 6.28929 7.07529 5.91421C6.70692 5.53914 6.49997 5.03043 6.49997 4.5C6.49997 3.96957 6.70692 3.46086 7.07529 3.08579C7.44367 2.71071 7.94329 2.5 8.46425 2.5C11.2143 2.5 12 6.5 12 6.5ZM12 6.5H15.5357C16.0566 6.5 16.5563 6.28929 16.9246 5.91421C17.293 5.53914 17.5 5.03043 17.5 4.5C17.5 3.96957 17.293 3.46086 16.9246 3.08579C16.5563 2.71071 16.0566 2.5 15.5357 2.5C12.7857 2.5 12 6.5 12 6.5Z" stroke="#000000" stroke-width="2" stroke-linecap="round" stroke-linejoin="round"/>
</svg>